<svg width="1316.9" height="392.41" version="1.1" viewBox="0 0 348.44 103.83" xmlns="http://www.w3.org/2000/svg">
 <defs>
  <filter id="filter4537" x="-.014738" y="-.13441" width="1.0295" height="1.2688" color-interpolation-filters="sRGB">
   <feGaussianBlur stdDeviation="1.6532699"/>
  </filter>
  <filter id="filter4553" x="-.014461" y="-.16282" width="1.0289" height="1.3256" color-interpolation-filters="sRGB">
   <feGaussianBlur stdDeviation="1.4899638"/>
  </filter>
  <filter id="filter4621" x="-.036221" y="-.20902" width="1.0724" height="1.418" color-interpolation-filters="sRGB">
   <feGaussianBlur stdDeviation="4.5909899"/>
  </filter>
  <filter id="filter4625" x="-.045743" y="-.21992" width="1.0915" height="1.4398" color-interpolation-filters="sRGB">
   <feGaussianBlur stdDeviation="6.084487"/>
  </filter>
  <filter id="filter4625-7" x="-.045743" y="-.21992" width="1.0915" height="1.4398" color-interpolation-filters="sRGB">
   <feGaussianBlur stdDeviation="6.084487"/>
  </filter>
  <filter id="filter4533-9" x="-.01622" y="-.14822" width="1.0324" height="1.2964" color-interpolation-filters="sRGB">
   <feGaussianBlur stdDeviation="1.9165877"/>
  </filter>
  <filter id="filter4529-5" x="-.023929" y="-.18307" width="1.0479" height="1.3661" color-interpolation-filters="sRGB">
   <feGaussianBlur stdDeviation="3.0012491"/>
  </filter>
  <filter id="filter4537-1" x="-.014738" y="-.13441" width="1.0295" height="1.2688" color-interpolation-filters="sRGB">
   <feGaussianBlur stdDeviation="1.6532699"/>
  </filter>
  <filter id="filter4553-4" x="-.014461" y="-.16282" width="1.0289" height="1.3256" color-interpolation-filters="sRGB">
   <feGaussianBlur stdDeviation="1.4899638"/>
  </filter>
  <filter id="filter4621-4" x="-.036221" y="-.20902" width="1.0724" height="1.418" color-interpolation-filters="sRGB">
   <feGaussianBlur stdDeviation="4.5909899"/>
  </filter>
  <filter id="filter4621-0" x="-.025556" y="-.14747" width="1.0511" height="1.2949" color-interpolation-filters="sRGB">
   <feGaussianBlur stdDeviation="3.2392326"/>
  </filter>
  <filter id="filter4621-0-3" x="-.025556" y="-.14747" width="1.0511" height="1.2949" color-interpolation-filters="sRGB">
   <feGaussianBlur stdDeviation="3.2392326"/>
  </filter>
  <filter id="filter5003" x="-.28057" y="-.26819" width="1.5611" height="1.5364" color-interpolation-filters="sRGB">
   <feGaussianBlur stdDeviation="8.1235434"/>
  </filter>
 </defs>
 <g transform="translate(-133.77 -137.36)">
  <g fill="#ff0" stroke-width="58.761">
   <path d="m604.87 363.48c6.0586-8.8144 7.2296-10.946 15.363-20.166 4.5298-5.1349 9.0021-10.367 14.098-14.941 0.86259-0.77419 2.4103-0.14454 3.3935-0.75829 47.739-29.799-6.4082 0.21222 42.548-25.974 7.8468-2.562 15.521-5.7311 23.54-7.6861 15.14-3.691 31.919-5.1903 47.485-4.2852 14.262 0.82934 30.978 4.3044 44.673 8.4011 6.8518 2.0497 13.48 4.7846 20.219 7.177 6.0674 2.9962 12.374 5.5508 18.202 8.9885 17.342 10.228 32.517 24.32 44.294 40.619 10.173 14.08 12.427 20.363 19.938 35.781 6.4614 16.641 7.309 17.546 11.934 34.141 1.273 4.5675 2.2595 9.21 3.3893 13.815l18.494-16.696c-5.0718-15.84-10.293-31.648-17.248-46.792-6.6596-13.083-11.682-24.131-20.3-36.164-11.522-16.088-27.929-31.268-45.056-41.219-5.9552-3.4597-12.442-5.9099-18.663-8.8649-6.8544-2.377-13.593-5.1196-20.563-7.1311-12.41-3.5812-32.598-7.6257-45.402-8.3993-15.491-0.93599-33.148 0.68801-48.23 4.2103-8.1011 1.8919-15.882 4.958-23.824 7.437-15.653 8.2455-29.032 14.285-42.849 25.618-22.17 18.184-42.985 38.597-61.079 60.891-2.3899 2.9447-4.5685 6.0548-6.8527 9.0822l22.495-17.085z" opacity=".62439"/>
   <path d="m582.79 115.37c30.086-12.606 59.944-14.556 92.029-8.0035 11.35 2.3178 22.365 6.0456 33.548 9.0684 11.788 4.7217 23.79 8.9395 35.363 14.165 11.091 5.0079 21.878 10.683 32.564 16.505 22.381 12.195 43.994 26.198 64.249 41.678 3.7674 2.8792 7.3679 5.9704 11.052 8.9556 5.3287 5.314 13.389 10.856 15.546 18.634 0.45252 1.6314 0.24265 2.32 0.0669 3.8821-0.12806 0.47422-0.25611 0.94844-0.38417 1.4227l24.312-16.335c-0.1016-0.72671-0.2032-1.4534-0.3048-2.1802-0.66485-2.3829-0.79589-3.357-2.091-5.6273-4.5911-8.0478-12.991-12.91-20.351-18.015-4.1636-2.5682-8.2864-5.2037-12.491-7.7045-22.401-13.325-45.419-25.711-68.668-37.483-10.967-5.5531-21.947-11.09-33.09-16.282-11.527-5.3708-23.27-10.266-34.905-15.398-22.834-7.7229-37.195-13.93-60.737-17.179-7.2465-1.0003-14.618-0.93824-21.932-0.78135-13.407 0.28761-26.762 2.8023-39.735 6.0083 0 0-14.042 24.671-14.042 24.671z" opacity=".62439"/>
   <path d="m574.95 60.36c9.1049-10.979 8.0987-10.137 19.319-21.73 0.5284-0.54598-1.938 2.3191-1.3526 1.8348 4.9332-4.0814 9.4469-8.6586 14.442-12.664 4.5903-3.681 9.2834-7.2701 14.284-10.371 4.8294-2.9949 10.083-5.2442 15.124-7.8663 5.2484-1.6248 10.349-3.8433 15.745-4.8744 24.417-4.6651 51.185 2.6105 73.338 12.613 7.5801 3.4227 14.776 7.6395 22.164 11.459 7.2231 4.7097 14.625 9.1564 21.669 14.129 12.88 9.092 25.928 19.86 37.535 30.556 8.173 7.5313 19.838 19.353 27.042 28.125 3.6669 4.4651 6.8907 9.2766 10.336 13.915 12.93 19.485 21.613 40.652 26.633 63.403l21.783-17.018c-7.6983-22.082-17.725-43.325-31.167-62.543-3.6571-4.7171-7.0286-9.67-10.971-14.151-7.2041-8.1881-20.721-20.356-28.739-27.247-19.043-16.368-39.122-31.505-60.34-44.955-7.2797-4.2536-14.342-8.904-21.839-12.761-17.738-9.1245-37.297-15.513-57.327-16.649-6.0108-0.34078-12.096-0.35972-18.054 0.50203-5.718 0.82697-11.154 3.0192-16.73 4.5288-5.3422 2.5483-10.925 4.644-16.026 7.6448-9.1923 5.407-21.983 16.015-29.656 23.185-18.171 16.979-35.672 34.656-52.718 52.756l25.507-11.822z" opacity=".62439"/>
   <path d="m543.89 491.51c1.8486-2.5188 9.6719-13.66 11.727-13.605 3.3211 0.0877-8.9921 8.6967-5.7122 8.1675 5.7064-0.92077 9.4412-6.7024 14.455-9.5783 13.841-7.9388 18.579-8.924 33.437-14.285 6.326-1.2355 12.583-2.9043 18.978-3.7064 18.895-2.3699 38.682-1.2366 57.132 3.5686 15.546 4.0489 18.78 6.5786 32.955 13.664 4.9552 3.4422 10.137 6.5789 14.866 10.327 12.983 10.29 24.514 23.008 33.52 36.911 6.5961 10.184 8.0412 14.481 12.935 25.377 4.712 10.809 7.8396 22.154 10.834 33.52l18.718-18.718c-3.6918-10.921-7.4718-21.815-11.88-32.474-4.8666-10.301-6.8073-15.431-13.333-24.978-8.9056-13.028-21.895-26.439-34.201-36.231-4.7148-3.7513-9.8417-6.9531-14.763-10.43-13.686-6.6957-18.144-9.7599-33.127-13.492-5.9731-1.4879-12.088-2.4037-18.203-3.1132-12.985-1.5066-26.129-1.7473-39.134-0.25103-6.2932 0.72406-12.462 2.2814-18.694 3.4221-14.324 5.1904-19.852 6.5218-33.183 14.032-18.34 10.331-26.642 20.215-43.745 36.413-3.0796 2.9166-5.981 6.0228-8.7862 9.2042-1.8706 2.1215-3.4833 4.4572-5.2249 6.6858 0 0 20.429-20.429 20.429-20.429z" opacity=".62439"/>
   <path d="m714.93 403.68c0.83658-0.9543 1.6525-1.9271 2.5098-2.8629 1.2732-1.3898 5.2212-5.4375 3.8808-4.1124-4.8232 4.7683-9.7969 9.3999-14.331 14.444-1.8862 2.0982 4.1542-3.8262 6.3636-5.5809 7.3506-5.8377 7.957-5.6465 16.541-10.269 11.064-4.6367 22.752-8.4163 34.768-9.573 4.9724-0.47865 9.9889-0.53369 14.982-0.37118 13.535 0.44061 18.039 1.7718 31.245 4.1982 5.3594 1.8355 10.842 3.3446 16.078 5.5066 15.863 6.5499 29.631 15.452 41.356 28.064 9.486 10.203 12.664 16.397 20.057 28.06 12.64 22.819 18.829 48.166 22.128 73.854 0.48014 3.7389 0.79666 7.497 1.195 11.245 0.84112 8.2713 1.0286 16.578 1.1268 24.883l19.525-19.525c-0.62304-7.9171-1.2783-15.833-2.2976-23.712-1.4127-9.4667-1.9048-13.607-3.9036-23.243-4.345-20.947-10.635-41.479-20.944-60.331-3.0822-4.8138-5.9172-9.795-9.2465-14.441-6.3553-8.869-14.686-18.728-23.275-25.57-4.2694-3.4007-8.9966-6.2111-13.756-8.8826-12.02-6.7464-17.954-8.3622-30.829-13.122-15.127-2.7248-30.065-5.5829-45.563-4.4914-11.774 0.82928-23.2 4.4605-34.056 8.8607-2.9501 1.5419-6.0079 2.8934-8.8504 4.6256-4.1252 2.5138-9.7936 7.0657-13.305 10.475-10.89 10.573-21.917 21.189-32.06 32.532l20.662-20.662z" opacity=".62439"/>
  </g>
  <path d="m-1337.4 2460.7c677.48-43.1 1355-86.2 2032.4-129.3 11.634-3.178 22.077 8.0812 28.284 8.0812" fill="none" stroke="#000" stroke-width="1px"/>
  <path d="m-356.61 2402.4-1498-119.43" fill="none" stroke="#000" stroke-width="1px"/>
  <path d="m-336.14 414.62c-0.24459-0.61538 3.632-2.6813 9.8289-7.7335h1e-5c3.5316-2.8896 5.7046-4.8759 10.345-8.9346 3.0016-2.6299 6.7877-5.9112 10.827-8.8522 3.2387-2.3737 7.1305-4.86 11.663-6.5944 5.9308-2.2442 12.041-6.6223 20.29-9.5899l1e-5 -1e-5c6.4407-2.2951 13.257-5.5963 21.251-7.9821 1.9263-0.54352 3.9454-1.646 6.3874-2.841 2.2204-1.1403 4.8304-2.4706 7.9461-3.3984 6.2679-1.8073 13.072-3.6679 20.157-4.8233 12.818-2.0734 26.162-3.6502 40.028-4.6781 4.3072-0.31931 8.5801-0.57938 12.814-0.78483 2.8369-0.0911 5.2755 0.31083 7.2824 0.71373 2.8842 0.52391 5.6768 1.165 8.3541 1.7972h2e-5c2.7548 0.64871 5.4298 1.3091 8.0464 1.8977 2.0839 0.45399 3.8894 0.89462 5.5097 1.0268 2.0453 0.20246 3.7915 0.60898 5.2498 0.95231 1.6265 0.35532 2.9762 0.70902 4.1351 0.83679 1.7368 0.29443 2.8646 0.73587 3.4317 1.0735 1.0616 0.48101 2.0185 0.97359 2.8854 1.4211 0.90592 0.46333 1.718 0.88914 2.4768 1.2357l1e-5 1e-5c0.73669 0.2614 0.96305 0.46012 0.70778 0.34758 1.8948 0.24318 4.0579 0.48233 6.4595 1.1058 2.1957 0.60247 4.0818 1.3094 5.7671 1.8331 1.8477 0.57061 3.5984 1.2047 5.2268 1.786h1.2e-5c0.8077 0.28724 1.6105 0.57533 2.4074 0.86336h1.1e-5c0.24961 0.0902 0.49906 0.18058 0.74835 0.27114h8e-6c0.09168 0.0334 0.18351 0.0668 0.27548 0.10029h9e-6c-0.0027-9.9e-4 0.05721 0.0208 0.05446 0.0198 0.01693 6e-3 0.0036 1e-3 0.0205 7e-3 4.2805 1.7196 9.1243 3.531 13.247 5.126 4.3833 1.697 8.5794 3.687 12.349 5.4976 9.849 4.7223 18.295 9.3926 25.718 13.074 7.5419 3.7943 19.66 15.166 21.17 16.387 0.33411 0.29707 0.86624 0.60541 1.3572 0.91952 0.83681 0.53383 1.5185 0.97859 2.1799 1.4598 0.85762 0.62132 1.4705 1.1487 1.9451 1.7048 1.1028 0.97165 0.55545 1.7299 0.46926 1.7299-0.22689 0-0.463-0.0823-1.3012-0.68152-0.67292-0.31958-1.0831-0.46938-2.1396-0.88154-0.75288-0.28843-1.6261-0.60708-2.379-0.8955-0.48541-0.17741-1.1429-0.41273-1.8359-0.79883-5.3724-2.9369-12.224-9.7267-21.92-13.473-7.8559-3.1723-16.655-7.3629-26.443-11.494-3.8331-1.6173-7.959-3.3662-12.015-4.7492-4.1614-1.4264-8.908-3.0118-13.415-4.66 0.04804 0.0159-0.06948-0.023-0.02132-7e-3 -0.0024-7.9e-4 -0.05394-0.0178-0.05635-0.0186h-7e-6c-0.04594-0.0143-0.0921-0.0286-0.13847-0.043h-3e-6c-0.24725-0.0812-0.49524-0.16245-0.74396-0.24379h-1.2e-5c-0.79423-0.25974-1.5928-0.51943-2.3942-0.77803h-1e-5c-1.6879-0.54364-3.3437-1.0941-4.9214-1.531-2.0527-0.57576-3.8746-1.2125-5.5251-1.6084-1.4349-0.37229-3.1944-0.48684-5.3048-0.74432-1.6761-0.28873-2.7901-0.71607-3.3694-1.041l-1e-5 -1e-5c-1.0555-0.461-2.0086-0.93106-2.893-1.365-0.89909-0.4376-1.7249-0.84717-2.4856-1.1694-0.7443-0.24025-0.95347-0.41955-0.64913-0.28424-1.9582-0.21858-3.6452-0.60024-5.1202-0.91689-1.5822-0.31541-2.926-0.63695-4.0157-0.69579-2.5196-0.21284-4.7641-0.69115-6.7945-1.1367-2.7868-0.59263-5.4522-1.221-8.1766-1.8367h-2e-5c-2.6541-0.59816-5.2903-1.1853-7.874-1.634-2.0335-0.31581-3.7329-0.65899-5.0366-0.54038-4.1575 0.21983-8.352 0.48434-12.579 0.79781-13.614 1.0096-26.689 2.4619-39.278 4.3226-6.4156 0.93523-12.916 2.606-19.152 4.2481-1.9231 0.4625-4.0518 1.5439-6.4217 2.6325-2.338 1.126-4.9152 2.3657-7.971 3.2234-7.107 1.8616-14.001 4.9247-21.082 7.1369h-1e-5c-6.8509 2.0658-13.396 6.2392-20.531 8.5529-3.6953 1.1361-7.255 3.138-10.44 5.1142-3.8903 2.4307-7.9252 5.3981-11.108 7.7016-4.5762 3.3173-7.8923 5.673-11.493 7.8511h-1e-5c-7.191 4.3645-11.737 5.2968-11.986 4.6707z" fill="#ff2a2a" filter="url(#filter4625-7)" style="mix-blend-mode:normal"/>
  <path transform="matrix(1 0 0 1.1526 11.535 93.7)" d="m-329.41 291.42c-0.1022-0.38443 3.4401-1.6533 9.7419-4.1829 4.1698-1.6738 17.519-7.3901 27.416-9.9343h1e-5c5.9668-1.5264 12.55-2.7567 19.424-4.4001 5.5929-1.3364 11.514-3.4107 18.173-4.744 4.084-0.80693 8.1806-1.154 12.08-1.9134 2.2225-0.42689 4.4571-1.0389 6.8064-1.7056 2.3964-0.68094 4.8818-1.2202 7.4368-1.5653 13.111-1.7572 26.382-2.2618 40.684-2.3621 4.9642-0.0348 9.956-0.0215 14.768-0.01 5.5045 0.01 10.662-0.27351 16.285 0.0567 2.6912 0.1802 4.9041 0.79709 6.7692 0.93571 1.3543 0.1301 3.175-0.14033 5.3982 0.0337 6.586 0.6252 12.348 2.652 17.751 3.7762 1.9813 0.42067 4.0757 0.5429 6.057 0.96357 3.7276 0.80581 7.2843 1.5635 10.887 2.6644 3.1358 0.96488 6.2514 1.8059 9.2697 2.5547 10.479 2.5976 19.6 5.3412 27.399 7.3046 10.422 2.608 16.125 4.4168 21.474 7.2158 0.3772 0.2069 0.87755 0.39765 1.3065 0.57867 0.7683 0.32362 1.3829 0.58883 1.9835 0.87704 0.78369 0.37499 1.3245 0.67802 1.777 1.0174 0.24813 0.18373 0.42544 0.35215 0.55035 0.52684 0.28351 0.31476 0.09165 0.51456 0.06401 0.51456-0.07627-1e-5 -0.15369-0.037-0.36341-0.17408-0.18553-0.0841-0.29258-0.11489-0.59563-0.21796-0.58505-0.19227-0.93351-0.27971-1.853-0.52002-0.58757-0.15164-1.4804-0.3714-2.0679-0.52303-0.42342-0.10575-0.97624-0.2347-1.5312-0.44277-5.9451-2.2022-10.534-3.2123-21.522-5.3663-8.0013-1.5594-17.295-3.9407-27.69-6.1762-3.1107-0.67021-6.3374-1.4436-9.6112-2.3567-3.3537-0.93721-6.7714-1.5731-10.54-2.3101-1.7047-0.33843-3.7385-0.40932-6.0356-0.83385-5.8936-1.0983-11.544-3.0167-17.183-3.4136-1.3209-0.12225-3.1015 0.17146-5.3507 0.0337h-2e-5c-2.6017-0.19337-4.8037-0.78805-6.6669-0.86173-5.0565-0.26551-10.38 0.0473-15.962 0.0567-4.7813 0.0117-9.8328 0.0107-14.727 0.0447-14.227 0.0988-27.203 0.50206-39.997 2.0771-2.2596 0.27421-4.4894 0.72938-6.6668 1.3146-2.3983 0.64753-4.8053 1.2609-7.306 1.7055-4.314 0.75625-8.3824 1.0199-12.105 1.6815-6.1915 1.0843-12.166 3.0087-18.104 4.2432-7.1022 1.4727-13.67 2.4526-19.541 3.6884h-1e-5c-11.734 2.4501-21.021 6.1747-27.618 8.0753-6.6106 1.9046-10.367 2.4492-10.467 2.0729z" fill="#0f0" filter="url(#filter4533-9)"/>
  <path transform="matrix(1 0 0 1.2259 11.535 72.75)" d="m-339.92 289.55c-0.15325-0.48246 3.5922-2.0979 10.203-5.2887 4.39-2.1188 18.341-9.3082 29.027-12.595h1e-5c6.3448-1.9388 13.357-3.5057 20.589-5.5733 5.8802-1.6796 12.105-4.2956 19.301-6.0197 4.166-0.98019 8.65-1.4439 12.816-2.4241 2.3127-0.52936 4.6447-1.2958 7.1216-2.135 2.5698-0.87259 5.262-1.572 8.0529-2.0229 13.961-2.2298 28.12-2.8754 43.331-3.0049 5.2781-0.0449 10.577-0.0283 15.685-0.0127 5.7897 0.011 11.296-0.34734 17.357 0.073 3.0478 0.25163 5.3845 1.0325 7.2073 1.1876h1e-5c1.2329 0.1572 3.178-0.18504 5.7399 0.0431 7.2419 0.83546 13.327 3.4022 18.964 4.8075 1.7392 0.44717 3.9553 0.60256 6.4327 1.2224 3.9572 1.0207 7.7716 1.9952 11.623 3.3996 3.2904 1.2113 6.5754 2.2723 9.7691 3.2196 11.139 3.3 20.754 6.7623 29.016 9.2491 11.061 3.3028 17.243 5.6814 22.771 9.1608 0.36615 0.24699 0.8857 0.48524 1.3448 0.71808 0.80539 0.40753 1.4546 0.74384 2.0872 1.1087h2e-6c0.82241 0.47262 1.3998 0.86315 1.8683 1.2898 0.26044 0.23381 0.44687 0.45285 0.56976 0.67078 0.28199 0.41567 0.06258 0.64692 0.0058 0.64692-0.1027 0-0.2064-0.0652-0.44778-0.22625-0.20355-0.10434-0.31742-0.14187-0.64647-0.27359-0.62607-0.24232-1.001-0.35299-1.9843-0.6596h-3e-6c-0.65939-0.20247-1.5532-0.46409-2.2126-0.66656-0.45204-0.13352-1.0515-0.30216-1.6669-0.57708-6.2198-2.733-11.168-4.0493-22.861-6.793-8.5621-1.9949-18.431-5.0148-29.449-7.8443-3.3303-0.85745-6.7786-1.8457-10.269-3.008-3.4889-1.165-7.1035-1.9686-11.118-2.9079-1.6879-0.40432-3.8545-0.49651-6.4011-1.0566-6.3684-1.4164-12.285-3.8389-18.112-4.3089-1.1955-0.14723-3.0804 0.2251-5.6679 0.0431h-2e-5c-2.9316-0.26704-5.2513-1.0202-7.0526-1.0915-5.2692-0.33459-10.893 0.0623-16.867 0.073-5.0762 0.0155-10.434 0.0152-15.621 0.0588-15.086 0.1266-28.821 0.63534-42.294 2.6215-2.3456 0.3385-4.6605 0.90569-6.9152 1.6287-2.5458 0.82198-5.1309 1.609-7.8558 2.1902-4.6559 0.97406-8.9888 1.3122-12.852 2.1341-6.5081 1.356-12.812 3.7872-19.201 5.3758-7.5702 1.8754-14.56 3.1232-20.764 4.6827h-1e-5c-12.486 3.1046-22.293 7.808-29.34 10.226-7.0674 2.4251-11.133 3.1319-11.284 2.6584z" fill="#ff0" filter="url(#filter4529-5)"/>
  <path transform="matrix(1.0453 0 0 1 26.442 138.18)" d="m-329.17 295.18c-0.0974-0.36566 3.2653-1.5727 9.2473-3.979 3.9584-1.5923 16.629-7.0296 26.027-9.4503h1e-5c5.6646-1.4521 11.915-2.6225 18.44-4.1857 5.3092-1.2711 10.93-3.2443 17.253-4.5128 3.8777-0.76771 7.7671-1.0979 11.469-1.8202 2.1095-0.406 4.2306-0.9881 6.4607-1.6223 2.2753-0.64783 4.6353-1.161 7.0615-1.4893 12.448-1.6716 25.047-2.1516 38.625-2.2471 4.7129-0.0331 9.452-0.0204 14.02-9e-3 5.2252 9e-3 10.122-0.26019 15.461 0.0539 2.5566 0.17159 4.6572 0.75841 6.4266 0.89012l1e-5 1e-5c1.284 0.12371 3.0125-0.13355 5.1249 0.0321 6.2547 0.59504 11.725 2.5231 16.853 3.5923 1.8802 0.40007 3.8701 0.51657 5.7503 0.91664 3.5388 0.76654 6.9158 1.4874 10.336 2.5347 2.9766 0.91778 5.9343 1.7178 8.7996 2.4301 9.9481 2.4711 18.607 5.0809 26.01 6.9487 9.8946 2.4809 15.31 4.2022 20.386 6.8643 0.35778 0.1967 0.83269 0.37814 1.2399 0.55037 0.7293 0.30783 1.3127 0.56011 1.8829 0.83428 0.74392 0.3567 1.2574 0.64501 1.6869 0.9678 0.23554 0.17478 0.40386 0.33505 0.52236 0.50119 0.26898 0.29959 0.08673 0.48944 0.06022 0.48944-0.0726 0-0.1463-0.0354-0.34554-0.16563-0.17619-0.08-0.27781-0.10925-0.56558-0.2073-0.55546-0.1829-0.88632-0.26607-1.7593-0.49469-0.55814-0.14433-1.4052-0.35325-1.9633-0.49758-0.402-0.10059-0.92693-0.2233-1.454-0.42131-5.6431-2.0945-10-3.0556-20.432-5.1048-7.5966-1.4836-16.419-3.7488-26.288-5.8754-2.9534-0.63762-6.0168-1.3734-9.1251-2.242-3.1832-0.89137-6.4277-1.4962-10.006-2.1974-1.6173-0.32176-3.5482-0.38921-5.7299-0.79322-5.5961-1.045-10.96-2.8699-16.311-3.2472-1.2523-0.11623-2.9426 0.16318-5.0796 0.0321h-1e-5c-2.4714-0.18411-4.5617-0.74981-6.3291-0.81974-4.7995-0.25256-9.8528 0.045-15.153 0.0539-4.5392 0.0111-9.3349 0.0102-13.981 0.0426-13.506 0.094-25.825 0.4776-37.97 1.9758-2.1447 0.26078-4.2611 0.6937-6.3278 1.2503-2.2769 0.61599-4.5622 1.1995-6.9369 1.6226-4.0962 0.71952-7.9586 0.97038-11.492 1.5996-5.8774 1.0313-11.549 2.8619-17.187 4.0365-6.7428 1.401-12.978 2.3333-18.552 3.5088h-1e-5c-11.14 2.3307-19.956 5.8737-26.219 7.6818-6.2762 1.8119-9.8428 2.3301-9.9381 1.9721z" fill="#0ff" filter="url(#filter4537-1)"/>
  <path transform="matrix(1.0642 0 0 1 32.321 138.18)" d="m-323.91 295.52c-0.0592-0.27434 3.0382-1.1691 8.5866-2.9672 3.6607-1.1864 15.45-5.2592 23.954-7.0308h1e-5c5.1947-1.0787 10.918-1.9461 16.956-3.1166 4.9158-0.95272 10.12-2.4273 15.838-3.3551 3.5152-0.56521 7.0697-0.80834 10.538-1.355 1.9697-0.30766 3.9457-0.74524 6.0063-1.2201 2.0701-0.47734 4.1997-0.85162 6.3752-1.0899 11.402-1.2426 22.924-1.5972 35.374-1.6672 4.3239-0.0243 8.6778-0.0147 12.875-7e-3 4.8346 7e-3 9.3109-0.1933 14.153 0.0397 2.2197 0.1171 4.1573 0.55426 5.8879 0.66169h1e-5c1.3153 0.0956 2.8945-0.0961 4.7004 0.0238 5.574 0.42286 10.619 1.8588 15.397 2.6635 1.6136 0.27529 3.4017 0.35699 5.2789 0.68161 3.2504 0.57088 6.3242 1.1006 9.4456 1.8754 2.761 0.68866 5.4932 1.2864 8.1317 1.8174 9.1252 1.8353 17.124 3.7848 23.935 5.1756 9.094 1.849 13.965 3.0854 18.736 5.1008 1.0681 0.4596 2.1028 0.72673 2.9115 1.0398 0.69089 0.2673 1.1585 0.47834 1.5609 0.72031 0.21875 0.13018 0.37244 0.24551 0.48801 0.37107 0.26041 0.20744 0.09979 0.36619 0.09892 0.36619-0.05061 0-0.10199-0.0127-0.2738-0.12113-0.15857-0.0611-0.25132-0.0837-0.51134-0.156-0.50779-0.13677-0.80608-0.19838-1.6047-0.36769-0.54321-0.11306-2.1018-0.37191-3.0961-0.67383-5.2514-1.5877-9.1972-2.2855-18.758-3.8034-6.929-1.0953-15.029-2.7801-24.105-4.3646-2.6928-0.47074-5.49-1.0145-8.3334-1.6583-2.9742-0.67444-5.9636-1.1257-9.2403-1.645-1.5687-0.2509-3.3369-0.30003-5.2664-0.59039-5.0628-0.76633-10.044-2.1284-15.067-2.4246-1.2875-0.09-2.8435 0.11797-4.6732 0.0238l-1e-5 -1e-5c-2.1557-0.12697-4.0872-0.54817-5.8291-0.61033-4.4732-0.18879-9.1322 0.0324-13.968 0.0397-4.1695 8e-3 -8.5781 7e-3 -12.851 0.0308-12.414 0.0694-23.752 0.35599-34.979 1.4754-2.0052 0.19813-3.9849 0.52488-5.9239 0.94818-2.0905 0.45769-4.1681 0.88731-6.3005 1.1939-3.5675 0.50797-6.9849 0.68105-10.552 1.189-5.4435 0.77629-10.679 2.1422-15.798 3.005-6.1711 1.0384-11.885 1.7295-17.024 2.6075-10.213 1.7354-18.346 4.3803-24.067 5.7214-5.7293 1.343-8.9506 1.7209-9.0085 1.4528z" fill="#800080" fill-opacity=".75143" filter="url(#filter4553-4)"/>
  <path d="m-326.2 418.51c-0.11971-0.36166 1.8614-1.2966 5.2883-3.3564 3.4268-2.0598 8.1784-5.5169 14.365-9.9601 4.9325-3.5941 12.626-9.3776 21.349-12.192 5.7397-1.8129 11.75-5.3433 19.371-7.6221h1e-5c6.2011-1.8405 12.766-4.4799 20.232-6.334 3.8568-0.9153 8.0427-3.5602 13.669-4.956 5.9829-1.4367 12.436-2.9076 19.071-3.8083 12.227-1.6503 24.943-2.9021 38.161-3.7155 4.0551-0.24953 8.0766-0.45282 12.06-0.6136 2.4763-0.0744 4.6922 0.23826 6.6156 0.55016 2.702 0.40863 5.3438 0.91419 7.895 1.4158h1e-5c2.618 0.51376 5.1758 1.0398 7.687 1.5106 1.9819 0.36342 3.7678 0.72087 5.4346 0.83896 1.8058 0.1461 3.4158 0.46184 4.8272 0.735 1.5304 0.2812 2.8674 0.56877 4.0813 0.6843 1.3562 0.18365 2.3114 0.50558 2.895 0.76969 0.97254 0.36669 1.8714 0.75225 2.7037 1.1094 0.86209 0.36739 1.6547 0.71242 2.4097 0.99967h1e-5c0.67751 0.21633 1.0095 0.39754 1.0326 0.35775 1.833 0.20012 3.8291 0.37924 5.9933 0.85356 2.0132 0.4597 3.8098 1.0209 5.4637 1.4484 1.7205 0.44281 3.3792 0.94365 4.9402 1.4074h1e-5c0.76892 0.22782 1.5336 0.45642 2.2928 0.68505l1.1e-5 1e-5c0.23788 0.0716 0.47556 0.14335 0.713 0.21522h8e-6c0.08164 0.0247 0.16336 0.0495 0.24518 0.0743 4e-6 1e-5 6e-6 1e-5 8e-6 1e-5 -0.0026-8e-4 0.05493 0.0167 0.05231 0.0159 0.01645 5e-3 0.0033 1e-3 0.0198 6e-3 4.1022 1.3721 8.7333 2.8147 12.648 4.0764 4.1183 1.3279 8.1194 2.9066 11.729 4.3489 9.3846 3.7443 17.516 7.4787 24.608 10.403 6.8258 2.8487 18.857 12.044 20.296 13 0.36224 0.25606 0.88481 0.50573 1.3494 0.75121 0.81164 0.42775 1.4666 0.78102 2.1048 1.1643 0.82915 0.49608 1.4129 0.90767 1.8834 1.3548 0.26257 0.24596 0.45003 0.47696 0.57175 0.70477 0.27934 0.43904 0.05477 0.6772-0.0089 0.6772-0.10854 0-0.21786-0.0741-0.46725-0.24235-0.20639-0.10969-0.32389-0.15054-0.65729-0.28977-0.63171-0.25536-1.0163-0.37423-2.0098-0.69817-0.65956-0.2117-1.5807-0.49359-2.2403-0.70529-0.45759-0.141-1.0665-0.32044-1.6939-0.61275-4.998-2.296-11.649-7.7378-20.772-10.702-7.3924-2.4864-15.771-5.8131-25.107-9.0981-3.65-1.284-7.6048-2.6794-11.492-3.7846-3.9633-1.1312-8.4821-2.3876-12.764-3.6913 0.04983 0.0137-0.07039-0.0194-0.02042-6e-3 -0.0023-6.3e-4 -0.05134-0.0141-0.05363-0.0147-2e-6 0-4e-6 -1e-5 -7e-6 -1e-5 -0.0498-0.0132-0.09976-0.0263-0.14987-0.0396h-3e-6c-0.23603-0.0645-0.47268-0.12908-0.70994-0.19368h-1e-5c-0.75738-0.20621-1.5191-0.41241-2.2836-0.61779l-1e-5 -1e-5c-1.6012-0.42956-3.1952-0.87034-4.7302-1.225-1.9049-0.44418-3.6581-0.95308-5.299-1.2833-1.5139-0.32075-3.2386-0.41811-5.2193-0.61502-1.3158-0.17921-2.2606-0.48979-2.8534-0.74444l-1e-5 -1e-5c-0.96722-0.35119-1.8611-0.71862-2.7083-1.0647-0.8541-0.34676-1.6585-0.67866-2.4154-0.9468-0.67785-0.19882-1.005-0.36719-0.99451-0.30803-1.7463-0.1584-3.3091-0.45457-4.7399-0.70769-1.4914-0.25062-2.8332-0.5127-4.0038-0.57321-2.264-0.1547-4.3433-0.5259-6.2926-0.87831-2.6344-0.46598-5.1696-0.96348-7.7752-1.4536h-1e-5c-2.535-0.47593-5.0718-0.94574-7.572-1.3078-1.9366-0.25993-3.6624-0.5371-5.1257-0.4453-3.9336 0.17339-7.9037 0.38152-11.906 0.62788-13.053 0.80338-25.585 1.9598-37.662 3.4436-6.1847 0.75254-12.438 2.0856-18.395 3.3922-4.0446 0.82604-8.3871 3.4098-13.71 4.6446-6.8536 1.4998-13.475 3.9422-20.116 5.6668h-1e-5c-6.6406 1.6806-12.959 5.0137-19.536 6.7789-7.5106 1.9069-15.41 7.0975-20.623 10.242-7.1257 4.3591-11.099 6.6807-15.706 8.4637-3.8759 1.5003-6.1274 1.7512-6.2471 1.3895z" fill="#f60" filter="url(#filter4621-4)" style="mix-blend-mode:normal"/>
  <path d="m148.38 218.18c-0.24459-0.61538 3.632-2.6813 9.8289-7.7335h1e-5c3.5316-2.8896 5.7046-4.8759 10.345-8.9346 3.0016-2.6299 6.7877-5.9112 10.827-8.8522 3.2387-2.3737 7.1305-4.86 11.663-6.5944 5.9308-2.2442 12.041-6.6223 20.29-9.5899l1e-5 -1e-5c6.4407-2.2951 13.257-5.5963 21.251-7.9821 1.9263-0.54352 3.9454-1.646 6.3874-2.841 2.2204-1.1403 4.8304-2.4706 7.9461-3.3984 6.2679-1.8073 13.072-3.6679 20.157-4.8233 12.818-2.0734 26.162-3.6502 40.028-4.6781 4.3072-0.3193 8.58-0.57937 12.814-0.78482 2.8369-0.0911 5.2755 0.31083 7.2824 0.71373 2.8842 0.52391 5.6768 1.165 8.3541 1.7972h2e-5c2.7548 0.64871 5.4298 1.3091 8.0464 1.8977 2.0839 0.45399 3.8894 0.89462 5.5097 1.0268 2.0453 0.20246 3.7915 0.60897 5.2498 0.95231 1.6265 0.35532 2.9762 0.70902 4.1351 0.83679 1.7368 0.29443 2.8646 0.73587 3.4317 1.0735 1.0616 0.48101 2.0185 0.97359 2.8854 1.4211 0.90592 0.46333 1.718 0.88913 2.4768 1.2357l1e-5 1e-5c0.73669 0.2614 0.96305 0.46012 0.70778 0.34758 1.8948 0.24318 4.0579 0.48233 6.4595 1.1058 2.1957 0.60248 4.0818 1.3094 5.7671 1.8331 1.8501 0.57142 3.6031 1.2063 5.2338 1.7884h1e-5c2e-3 5.8e-4 3.4916 1.2571 3.4933 1.2577 4.282 1.7201 9.128 3.5322 13.254 5.128 4.3833 1.697 8.5794 3.687 12.349 5.4976 9.849 4.7223 18.295 9.3926 25.718 13.074 7.5419 3.7943 19.66 15.166 21.17 16.387 0.33411 0.29707 0.86623 0.60541 1.3572 0.91952 0.83681 0.53383 1.5185 0.97859 2.1799 1.4598 0.85762 0.62132 1.4705 1.1487 1.9451 1.7048 1.1028 0.97165 0.55545 1.7299 0.46927 1.7299-0.22689 0-0.463-0.0823-1.3012-0.68152-0.67292-0.31958-1.0831-0.46938-2.1396-0.88154-0.75289-0.28843-1.6262-0.60708-2.379-0.8955-0.48541-0.17741-1.1429-0.41273-1.8359-0.79883-5.3724-2.9369-12.224-9.7267-21.92-13.473-7.8559-3.1723-16.655-7.3629-26.443-11.494-3.8331-1.6173-7.959-3.3662-12.015-4.7492-4.1591-1.4256-8.9035-3.0103-13.409-4.6579 2e-3 5.6e-4 -3.3692-1.0955-3.3673-1.0949l-1e-5 -1e-5c-1.6857-0.54287-3.3391-1.0925-4.9144-1.5286-2.0527-0.57575-3.8746-1.2125-5.5251-1.6084-1.4349-0.3723-3.1944-0.48685-5.3048-0.74433-1.6761-0.28873-2.7901-0.71607-3.3694-1.041l-1e-5 -1e-5c-1.0555-0.461-2.0086-0.93106-2.893-1.365-0.89909-0.4376-1.7249-0.84717-2.4856-1.1694-0.7443-0.24026-0.95347-0.41956-0.64913-0.28425-1.9582-0.21858-3.6452-0.60024-5.1202-0.91689-1.5822-0.31541-2.926-0.63695-4.0157-0.69579-2.5196-0.21284-4.7641-0.69115-6.7945-1.1367-2.7868-0.59263-5.4522-1.221-8.1766-1.8367h-2e-5c-2.6541-0.59816-5.2903-1.1853-7.874-1.634-2.0335-0.31581-3.7329-0.65899-5.0366-0.54038-4.1575 0.21983-8.3519 0.48434-12.579 0.79781-13.614 1.0096-26.689 2.4619-39.278 4.3226-6.4156 0.93523-12.916 2.606-19.152 4.2481-1.9231 0.4625-4.0518 1.5439-6.4217 2.6325-2.338 1.126-4.9152 2.3657-7.971 3.2234-7.107 1.8616-14.001 4.9247-21.082 7.1369h-1e-5c-6.8509 2.0658-13.396 6.2392-20.531 8.5529-3.6953 1.1361-7.255 3.138-10.44 5.1142-3.8903 2.4307-7.9252 5.3981-11.108 7.7016-4.5762 3.3173-7.8923 5.673-11.493 7.8511h-1e-5c-7.191 4.3645-11.737 5.2968-11.986 4.6707z" fill="#ff2a2a" filter="url(#filter4625)" style="mix-blend-mode:normal"/>
  <path transform="matrix(1.0453 0 0 1.259 510.89 -135.59)" d="m-329.17 295.18c-0.0974-0.36566 3.2653-1.5727 9.2473-3.979 3.9584-1.5923 16.629-7.0296 26.027-9.4503h1e-5c5.6646-1.4521 11.915-2.6225 18.44-4.1857 5.3092-1.2711 10.93-3.2443 17.253-4.5128 3.8777-0.76771 7.7671-1.0979 11.469-1.8202 2.1095-0.406 4.2306-0.9881 6.4607-1.6223 2.2753-0.64783 4.6353-1.161 7.0615-1.4893 12.448-1.6716 25.047-2.1516 38.625-2.2471 4.7129-0.0331 9.452-0.0204 14.02-9e-3 5.2252 9e-3 10.122-0.26019 15.461 0.0539 2.5566 0.17159 4.6572 0.75841 6.4266 0.89012l1e-5 1e-5c1.284 0.12371 3.0125-0.13355 5.1249 0.0321 6.2547 0.59504 11.725 2.5231 16.853 3.5923 1.8802 0.40007 3.8701 0.51657 5.7503 0.91664 3.5388 0.76654 6.9158 1.4874 10.336 2.5347 2.9766 0.91778 5.9343 1.7178 8.7996 2.4301 9.9481 2.4711 18.607 5.0809 26.01 6.9487 9.8946 2.4809 15.31 4.2022 20.386 6.8643 0.35778 0.1967 0.83269 0.37814 1.2399 0.55037 0.7293 0.30783 1.3127 0.56011 1.8829 0.83428 0.74392 0.3567 1.2574 0.64501 1.6869 0.9678 0.23554 0.17478 0.40386 0.33505 0.52236 0.50119 0.26898 0.29959 0.08673 0.48944 0.06022 0.48944-0.0726 0-0.1463-0.0354-0.34554-0.16563-0.17619-0.08-0.27781-0.10925-0.56558-0.2073-0.55546-0.1829-0.88632-0.26607-1.7593-0.49469-0.55814-0.14433-1.4052-0.35325-1.9633-0.49758-0.402-0.10059-0.92693-0.2233-1.454-0.42131-5.6431-2.0945-10-3.0556-20.432-5.1048-7.5966-1.4836-16.419-3.7488-26.288-5.8754-2.9534-0.63762-6.0168-1.3734-9.1251-2.242-3.1832-0.89137-6.4277-1.4962-10.006-2.1974-1.6173-0.32176-3.5482-0.38921-5.7299-0.79322-5.5961-1.045-10.96-2.8699-16.311-3.2472-1.2523-0.11623-2.9426 0.16318-5.0796 0.0321h-1e-5c-2.4714-0.18411-4.5617-0.74981-6.3291-0.81974-4.7995-0.25256-9.8528 0.045-15.153 0.0539-4.5392 0.0111-9.3349 0.0102-13.981 0.0426-13.506 0.094-25.825 0.4776-37.97 1.9758-2.1447 0.26078-4.2611 0.6937-6.3278 1.2503-2.2769 0.61599-4.5622 1.1995-6.9369 1.6226-4.0962 0.71952-7.9586 0.97038-11.492 1.5996-5.8774 1.0313-11.549 2.8619-17.187 4.0365-6.7428 1.401-12.978 2.3333-18.552 3.5088h-1e-5c-11.14 2.3307-19.956 5.8737-26.219 7.6818-6.2762 1.8119-9.8428 2.3301-9.9381 1.9721z" fill="#0ff" filter="url(#filter4537)"/>
  <path transform="matrix(.95994 0 0 1.1524 500.55 -106.38)" d="m-323.91 295.52c-0.0592-0.27434 3.0382-1.1691 8.5866-2.9672 3.6607-1.1864 15.45-5.2592 23.954-7.0308h1e-5c5.1947-1.0787 10.918-1.9461 16.956-3.1166 4.9158-0.95272 10.12-2.4273 15.838-3.3551 3.5152-0.56521 7.0697-0.80834 10.538-1.355 1.9697-0.30766 3.9457-0.74524 6.0063-1.2201 2.0701-0.47734 4.1997-0.85162 6.3752-1.0899 11.402-1.2426 22.924-1.5972 35.374-1.6672 4.3239-0.0243 8.6778-0.0147 12.875-7e-3 4.8346 7e-3 9.3109-0.1933 14.153 0.0397 2.2197 0.1171 4.1573 0.55426 5.8879 0.66169h1e-5c1.3153 0.0956 2.8945-0.0961 4.7004 0.0238 5.574 0.42286 10.619 1.8588 15.397 2.6635 1.6136 0.27529 3.4017 0.35699 5.2789 0.68161 3.2504 0.57088 6.3242 1.1006 9.4456 1.8754 2.761 0.68866 5.4932 1.2864 8.1317 1.8174 9.1252 1.8353 17.124 3.7848 23.935 5.1756 9.094 1.849 13.965 3.0854 18.736 5.1008 1.0681 0.4596 2.1028 0.72673 2.9115 1.0398 0.69089 0.2673 1.1585 0.47834 1.5609 0.72031 0.21875 0.13018 0.37244 0.24551 0.48801 0.37107 0.26041 0.20744 0.09979 0.36619 0.09892 0.36619-0.05061 0-0.10199-0.0127-0.2738-0.12113-0.15857-0.0611-0.25132-0.0837-0.51134-0.156-0.50779-0.13677-0.80608-0.19838-1.6047-0.36769-0.54321-0.11306-2.1018-0.37191-3.0961-0.67383-5.2514-1.5877-9.1972-2.2855-18.758-3.8034-6.929-1.0953-15.029-2.7801-24.105-4.3646-2.6928-0.47074-5.49-1.0145-8.3334-1.6583-2.9742-0.67444-5.9636-1.1257-9.2403-1.645-1.5687-0.2509-3.3369-0.30003-5.2664-0.59039-5.0628-0.76633-10.044-2.1284-15.067-2.4246-1.2875-0.09-2.8435 0.11797-4.6732 0.0238l-1e-5 -1e-5c-2.1557-0.12697-4.0872-0.54817-5.8291-0.61033-4.4732-0.18879-9.1322 0.0324-13.968 0.0397-4.1695 8e-3 -8.5781 7e-3 -12.851 0.0308-12.414 0.0694-23.752 0.35599-34.979 1.4754-2.0052 0.19813-3.9849 0.52488-5.9239 0.94818-2.0905 0.45769-4.1681 0.88731-6.3005 1.1939-3.5675 0.50797-6.9849 0.68105-10.552 1.189-5.4435 0.77629-10.679 2.1422-15.798 3.005-6.1711 1.0384-11.885 1.7295-17.024 2.6075-10.213 1.7354-18.346 4.3803-24.067 5.7214-5.7293 1.343-8.9506 1.7209-9.0085 1.4528z" fill="#800080" fill-opacity=".75143" filter="url(#filter4553)"/>
  <path d="m158.31 222.07c-0.11971-0.36166 1.8614-1.2966 5.2883-3.3564 3.4268-2.0598 8.1784-5.5169 14.365-9.9601 4.9325-3.5941 12.626-9.3776 21.349-12.192 5.7397-1.8129 11.75-5.3433 19.371-7.6221h1e-5c6.2011-1.8405 12.766-4.4799 20.232-6.334 3.8568-0.9153 8.0427-3.5602 13.669-4.956 5.9829-1.4367 12.436-2.9076 19.071-3.8083 12.227-1.6503 24.943-2.9021 38.161-3.7154 4.0551-0.24953 8.0766-0.45282 12.06-0.61361 2.4763-0.0744 4.6922 0.23826 6.6156 0.55017 2.702 0.40863 5.3438 0.91419 7.895 1.4158h1e-5c2.618 0.51376 5.1758 1.0398 7.687 1.5106 1.9819 0.36342 3.7678 0.72086 5.4346 0.83896 1.8058 0.14609 3.4158 0.46184 4.8272 0.735 1.5304 0.2812 2.8674 0.56877 4.0813 0.68429 1.3562 0.18366 2.3114 0.50559 2.895 0.7697 0.97254 0.36669 1.8714 0.75225 2.7037 1.1094 0.86209 0.36738 1.6547 0.71242 2.4097 0.99966l1e-5 1e-5c0.67751 0.21632 1.0095 0.39754 1.0326 0.35774 1.833 0.20013 3.8291 0.37925 5.9933 0.85357 2.0132 0.4597 3.8098 1.0209 5.4637 1.4484 1.7205 0.44281 3.3792 0.94365 4.9402 1.4074h1e-5c0.76892 0.22782 1.5336 0.45642 2.2928 0.68505l1e-5 1e-5c0.23788 0.0716 0.47556 0.14335 0.713 0.21522h1e-5c0.0816 0.0247 0.16336 0.0495 0.24518 0.0744h1e-5c-3e-3 -7.9e-4 0.0549 0.0167 0.0523 0.0159 0.0165 5e-3 3e-3 1e-3 0.0198 6e-3 4.1022 1.3721 8.7332 2.8147 12.648 4.0764 4.1184 1.3279 8.1194 2.9066 11.729 4.3489 9.3846 3.7443 17.516 7.4787 24.608 10.403 6.8258 2.8487 18.857 12.044 20.296 13 0.36224 0.25606 0.88482 0.50573 1.3494 0.75121 0.81164 0.42775 1.4666 0.78103 2.1048 1.1643 0.82914 0.49608 1.4129 0.90767 1.8834 1.3548 0.26256 0.24596 0.45002 0.47696 0.57175 0.70477 0.27934 0.43904 0.0548 0.67721-9e-3 0.6772-0.10854 0-0.21786-0.0741-0.46725-0.24234-0.20639-0.1097-0.32389-0.15055-0.65729-0.28978-0.63171-0.25535-1.0163-0.37423-2.0098-0.69817-0.65955-0.2117-1.5807-0.4936-2.2403-0.70529-0.45759-0.141-1.0665-0.32044-1.6939-0.61275-4.998-2.296-11.649-7.7378-20.772-10.702-7.3924-2.4864-15.771-5.8131-25.107-9.0981-3.65-1.284-7.6048-2.6794-11.492-3.7846-3.9633-1.1312-8.4821-2.3875-12.764-3.6913 0.0498 0.0137-0.0704-0.0193-0.0204-6e-3 -2e-3 -6.3e-4 -0.0513-0.0141-0.0536-0.0147h-1e-5c-0.0498-0.0132-0.0998-0.0264-0.14987-0.0396-0.23603-0.0645-0.47268-0.12909-0.70994-0.19368l-1e-5 -1e-5c-0.75738-0.2062-1.5191-0.41241-2.2836-0.61779h-1e-5c-1.6012-0.42957-3.1952-0.87035-4.7302-1.225-1.9049-0.44419-3.6581-0.95309-5.299-1.2833-1.5139-0.32075-3.2386-0.41811-5.2193-0.61501-1.3158-0.17922-2.2606-0.4898-2.8534-0.74445l-2e-5 -1e-5c-0.96721-0.35119-1.861-0.71862-2.7083-1.0647-0.8541-0.34675-1.6585-0.67865-2.4154-0.9468-0.67785-0.19882-1.005-0.36719-0.99451-0.30803-1.7463-0.1584-3.3091-0.45457-4.7399-0.70769-1.4914-0.25062-2.8332-0.5127-4.0038-0.57321-2.264-0.15469-4.3433-0.5259-6.2926-0.87831-2.6344-0.46598-5.1696-0.96348-7.7752-1.4536l-1e-5 -1e-5c-2.535-0.47593-5.0718-0.94573-7.572-1.3078-1.9366-0.25993-3.6624-0.5371-5.1257-0.4453-3.9336 0.17338-7.9037 0.38151-11.906 0.62787-13.053 0.80338-25.585 1.9598-37.662 3.4436-6.1847 0.75254-12.438 2.0857-18.395 3.3923-4.0446 0.82604-8.3871 3.4098-13.71 4.6446-6.8536 1.4998-13.475 3.9422-20.116 5.6668h-1e-5c-6.6406 1.6806-12.959 5.0137-19.536 6.7789-7.5106 1.9069-15.41 7.0975-20.623 10.242-7.1257 4.3591-11.099 6.6807-15.706 8.4637-3.8759 1.5003-6.1274 1.7512-6.2471 1.3895z" fill="#f60" filter="url(#filter4621)" style="mix-blend-mode:normal"/>
  <path transform="matrix(.92514 0 0 .84876 536.98 92.188)" d="m-395.44 156.85c-0.11971-0.36166 1.8614-1.2966 5.2882-3.3564 3.4268-2.0598 8.1784-5.5169 14.365-9.9601 4.9325-3.5941 12.626-9.3776 21.349-12.192 5.7397-1.8129 11.75-5.3433 19.371-7.6221h1e-5c6.2011-1.8405 12.766-4.4799 20.232-6.334 3.8568-0.9153 8.0427-3.5602 13.669-4.956 5.9829-1.4367 12.436-2.9076 19.071-3.8083 12.227-1.6503 24.943-2.9021 38.161-3.7155 4.0551-0.24953 8.0765-0.45282 12.06-0.6136 2.4763-0.0744 4.6922 0.23826 6.6156 0.55016 2.702 0.40863 5.3438 0.91419 7.895 1.4158l1e-5 1e-5c2.618 0.51376 5.1758 1.0398 7.687 1.5106 1.9819 0.36342 3.7678 0.72086 5.4346 0.83895 1.8058 0.1461 3.4158 0.46184 4.8272 0.73501 1.5304 0.28119 2.8674 0.56877 4.0813 0.68429 1.3562 0.18366 2.3114 0.50559 2.895 0.7697 0.97254 0.36669 1.8714 0.75225 2.7037 1.1094 0.86209 0.36738 1.6547 0.71241 2.4097 0.99966l1e-5 1e-5c0.67751 0.21632 1.0095 0.39753 1.0326 0.35774 1.833 0.20012 3.8291 0.37925 5.9933 0.85356 2.0132 0.45971 3.8098 1.0209 5.4637 1.4484 1.7221 0.44327 3.3825 0.94458 4.9451 1.4088h1e-5c2e-3 4.6e-4 3.3126 0.99352 3.3142 0.99397 4.1033 1.3724 8.7358 2.8154 12.653 4.0775 4.1183 1.3279 8.1194 2.9066 11.729 4.3489 9.3846 3.7443 17.516 7.4787 24.608 10.403 6.8258 2.8487 18.857 12.044 20.296 13 0.36224 0.25606 0.88481 0.50573 1.3494 0.75121 0.81164 0.42775 1.4666 0.78102 2.1048 1.1643 0.82915 0.49607 1.4129 0.90767 1.8834 1.3548 0.26257 0.24595 0.45003 0.47696 0.57175 0.70476 0.27935 0.43905 0.05477 0.67722-0.0089 0.67722-0.10854 0-0.21786-0.0741-0.46725-0.24236-0.20639-0.10969-0.32389-0.15054-0.65729-0.28977-0.63171-0.25536-1.0163-0.37423-2.0098-0.69817-0.65956-0.2117-1.5807-0.49359-2.2403-0.7053-0.45759-0.14099-1.0665-0.32043-1.6939-0.61275-4.998-2.296-11.649-7.7378-20.772-10.702-7.3924-2.4864-15.771-5.8131-25.107-9.0981-3.65-1.284-7.6048-2.6794-11.492-3.7846-3.9617-1.1308-8.479-2.3866-12.76-3.6901 2e-3 4.1e-4 -3.2281-0.87437-3.2265-0.87392h-1e-5c-1.5997-0.42912-3.192-0.86945-4.7254-1.2236-1.9049-0.44418-3.6581-0.95309-5.299-1.2833-1.5139-0.32076-3.2386-0.41812-5.2193-0.61502-1.3158-0.17921-2.2606-0.48979-2.8534-0.74445h-1e-5c-0.96721-0.3512-1.861-0.71863-2.7083-1.0647-0.8541-0.34675-1.6585-0.67865-2.4154-0.9468-0.67785-0.19881-1.005-0.36719-0.99451-0.30802-1.7463-0.1584-3.3091-0.45458-4.7399-0.70769-1.4914-0.25062-2.8332-0.5127-4.0038-0.57321-2.264-0.1547-4.3433-0.52591-6.2926-0.87831-2.6344-0.46599-5.1696-0.96348-7.7752-1.4536h-1e-5c-2.535-0.47593-5.0718-0.94574-7.572-1.3078-1.9366-0.25993-3.6624-0.5371-5.1257-0.4453-3.9336 0.17338-7.9036 0.38151-11.906 0.62787-13.053 0.80338-25.585 1.9598-37.662 3.4436-6.1847 0.75254-12.438 2.0856-18.395 3.3922-4.0446 0.82604-8.3871 3.4098-13.71 4.6446-6.8536 1.4998-13.475 3.9422-20.116 5.6668l-1e-5 1e-5c-6.6406 1.6806-12.959 5.0137-19.536 6.7789-7.5106 1.9069-15.41 7.0975-20.623 10.242-7.1257 4.3591-11.099 6.6807-15.706 8.4637-3.8759 1.5003-6.1274 1.7512-6.2471 1.3895z" fill="#ff0" filter="url(#filter4621-0)" style="mix-blend-mode:normal"/>
  <path transform="matrix(.91188 0 0 .84876 531.47 100.47)" d="m-395.44 156.85c-0.11971-0.36166 1.8614-1.2966 5.2882-3.3564 3.4268-2.0598 8.1784-5.5169 14.365-9.9601 4.9325-3.5941 12.626-9.3776 21.349-12.192 5.7397-1.8129 11.75-5.3433 19.371-7.6221h1e-5c6.2011-1.8405 12.766-4.4799 20.232-6.334 3.8568-0.9153 8.0427-3.5602 13.669-4.956 5.9829-1.4367 12.436-2.9076 19.071-3.8083 12.227-1.6503 24.943-2.9021 38.161-3.7155 4.0551-0.24953 8.0765-0.45282 12.06-0.6136 2.4763-0.0744 4.6922 0.23826 6.6156 0.55016 2.702 0.40863 5.3438 0.91419 7.895 1.4158l1e-5 1e-5c2.618 0.51376 5.1758 1.0398 7.687 1.5106 1.9819 0.36342 3.7678 0.72086 5.4346 0.83895 1.8058 0.1461 3.4158 0.46184 4.8272 0.73501 1.5304 0.28119 2.8674 0.56877 4.0813 0.68429 1.3562 0.18366 2.3114 0.50559 2.895 0.7697 0.97254 0.36669 1.8714 0.75225 2.7037 1.1094 0.86209 0.36738 1.6547 0.71241 2.4097 0.99966l1e-5 1e-5c0.67751 0.21632 1.0095 0.39753 1.0326 0.35774 1.833 0.20012 3.8291 0.37925 5.9933 0.85356 2.0132 0.45971 3.8098 1.0209 5.4637 1.4484 1.7221 0.44327 3.3825 0.94458 4.9451 1.4088h1e-5c2e-3 4.6e-4 3.3126 0.99352 3.3142 0.99397 4.1033 1.3724 8.7358 2.8154 12.653 4.0775 4.1183 1.3279 8.1194 2.9066 11.729 4.3489 9.3846 3.7443 17.516 7.4787 24.608 10.403 6.8258 2.8487 18.857 12.044 20.296 13 0.36224 0.25606 0.88481 0.50573 1.3494 0.75121 0.81164 0.42775 1.4666 0.78102 2.1048 1.1643 0.82915 0.49607 1.4129 0.90767 1.8834 1.3548 0.26257 0.24595 0.45003 0.47696 0.57175 0.70476 0.27935 0.43905 0.05477 0.67722-0.0089 0.67722-0.10854 0-0.21786-0.0741-0.46725-0.24236-0.20639-0.10969-0.32389-0.15054-0.65729-0.28977-0.63171-0.25536-1.0163-0.37423-2.0098-0.69817-0.65956-0.2117-1.5807-0.49359-2.2403-0.7053-0.45759-0.14099-1.0665-0.32043-1.6939-0.61275-4.998-2.296-11.649-7.7378-20.772-10.702-7.3924-2.4864-15.771-5.8131-25.107-9.0981-3.65-1.284-7.6048-2.6794-11.492-3.7846-3.9617-1.1308-8.479-2.3866-12.76-3.6901 2e-3 4.1e-4 -3.2281-0.87437-3.2265-0.87392h-1e-5c-1.5997-0.42912-3.192-0.86945-4.7254-1.2236-1.9049-0.44418-3.6581-0.95309-5.299-1.2833-1.5139-0.32076-3.2386-0.41812-5.2193-0.61502-1.3158-0.17921-2.2606-0.48979-2.8534-0.74445h-1e-5c-0.96721-0.3512-1.861-0.71863-2.7083-1.0647-0.8541-0.34675-1.6585-0.67865-2.4154-0.9468-0.67785-0.19881-1.005-0.36719-0.99451-0.30802-1.7463-0.1584-3.3091-0.45458-4.7399-0.70769-1.4914-0.25062-2.8332-0.5127-4.0038-0.57321-2.264-0.1547-4.3433-0.52591-6.2926-0.87831-2.6344-0.46599-5.1696-0.96348-7.7752-1.4536h-1e-5c-2.535-0.47593-5.0718-0.94574-7.572-1.3078-1.9366-0.25993-3.6624-0.5371-5.1257-0.4453-3.9336 0.17338-7.9036 0.38151-11.906 0.62787-13.053 0.80338-25.585 1.9598-37.662 3.4436-6.1847 0.75254-12.438 2.0856-18.395 3.3922-4.0446 0.82604-8.3871 3.4098-13.71 4.6446-6.8536 1.4998-13.475 3.9422-20.116 5.6668l-1e-5 1e-5c-6.6406 1.6806-12.959 5.0137-19.536 6.7789-7.5106 1.9069-15.41 7.0975-20.623 10.242-7.1257 4.3591-11.099 6.6807-15.706 8.4637-3.8759 1.5003-6.1274 1.7512-6.2471 1.3895z" fill="#0f0" filter="url(#filter4621-0-3)" style="mix-blend-mode:normal"/>
  <circle d="m -30.600147,122.62012 a 34.745037,36.348656 0 0 1 -32.814902,36.29252 34.745037,36.348656 0 0 1 -36.460729,-32.26032 34.745037,36.348656 0 0 1 28.764014,-39.876741 34.745037,36.348656 0 0 1 39.65649,27.829911" fill="#ff0" fill-opacity=".75143" filter="url(#filter5003)" opacity=".49756" stroke-width="58.761"/>
  <circle d="m -41.290951,125.56004 a 24.054256,24.856066 0 0 1 -22.718009,24.81769 24.054256,24.856066 0 0 1 -25.242043,-22.06037 24.054256,24.856066 0 0 1 19.913548,-27.26866 24.054256,24.856066 0 0 1 27.454494,19.03075" fill="#ff0" opacity=".76342" stroke-width="58.761"/>
 </g>
</svg>
